<svg width="107" height="103" viewBox="0 0 107 103" fill="none" xmlns="http://www.w3.org/2000/svg">
<path d="M53.2759 103C23.8874 103 0 79.9088 0 51.5C0 23.0912 23.8874 0 53.2759 0C82.6643 0 106.552 23.0912 106.552 51.5C106.552 79.9088 82.6643 103 53.2759 103ZM53.2759 7.18605C28.0008 7.18605 7.43384 27.0674 7.43384 51.5C7.43384 75.9326 28.0008 95.8139 53.2759 95.8139C78.5509 95.8139 99.1179 75.9326 99.1179 51.5C99.1179 27.0674 78.5509 7.18605 53.2759 7.18605Z" fill="#9F9D9D"/>
<path d="M46.236 68.6512C45.2448 68.6512 44.3032 68.2679 43.6094 67.5972L29.5839 54.0395C28.1467 52.6502 28.1467 50.3507 29.5839 48.9614C31.0212 47.5721 33.4 47.5721 34.8372 48.9614L46.236 59.98L71.7093 35.3558C73.1465 33.9665 75.5253 33.9665 76.9625 35.3558C78.3998 36.7451 78.3998 39.0447 76.9625 40.434L48.8626 67.5972C48.1688 68.2679 47.2272 68.6512 46.236 68.6512Z" fill="#9F9D9D"/>
</svg>
